<?xml version="1.0" encoding="UTF-8" standalone="no"?>
<!DOCTYPE svg PUBLIC "-//W3C//DTD SVG 1.1//EN" "http://www.w3.org/Graphics/SVG/1.1/DTD/svg11.dtd">
<svg width="100%" height="100%" viewBox="0 0 2500 1167" version="1.1" xmlns="http://www.w3.org/2000/svg" xmlns:xlink="http://www.w3.org/1999/xlink" xml:space="preserve" xmlns:serif="http://www.serif.com/" style="fill-rule:evenodd;clip-rule:evenodd;stroke-linejoin:round;stroke-miterlimit:2;">
    <path d="M470.223,707.837L470.223,706.174L468.56,706.174L459.698,704.512L470.223,707.837Z" style="fill:white;fill-rule:nonzero;"/>
    <path d="M979.183,979.761C989.708,979.761 999.12,984.185 1005.21,993.61L1020.72,984.185C1011.31,968.686 997.458,961.486 979.183,961.486C966.445,961.486 955.933,964.261 948.183,972.011C937.658,979.761 932.67,989.185 932.67,1001.37C932.67,1017.99 945.42,1030.17 968.12,1041.24L979.195,1045.67C995.808,1053.42 1005.22,1062.84 1005.22,1075.02L997.47,1096.62L975.87,1105.49L954.27,1098.29L946.508,1076.68L926.57,1081.11C928.233,1093.85 932.658,1104.36 942.07,1112.12C951.495,1119.31 962.02,1124.31 974.195,1124.31C988.033,1124.31 1000.22,1119.32 1011.31,1110.46L1025.14,1075.02C1025.14,1055.09 1012.96,1039.57 986.37,1029.05L974.183,1024.07C960.333,1017.99 952.57,1010.24 952.57,1001.37C952.57,995.285 955.908,990.298 961.995,985.873L979.183,979.761ZM1089.41,982.523L1126.49,982.523L1126.49,964.248L1031.25,964.248L1031.25,982.523L1069.46,982.523L1069.46,1120.99L1089.41,1120.99L1089.41,982.523ZM1253.89,1064.5L1253.89,964.248L1233.94,964.248L1233.94,1056.74C1233.94,1088.85 1221.21,1105.46 1195.73,1105.46C1170.81,1105.46 1158.62,1088.85 1158.62,1056.74L1158.62,964.248L1138.68,964.248L1138.68,1064.5C1138.68,1081.11 1143.11,1096.61 1154.18,1107.7C1164.71,1118.22 1178.54,1124.31 1195.72,1124.31C1213.99,1124.31 1227.83,1118.22 1238.36,1107.7C1248.89,1096.61 1253.89,1081.11 1253.89,1064.5M1312.59,964.248L1278.82,964.248L1278.82,1120.99L1310.93,1120.99L1306.51,1102.7L1298.76,1102.7L1298.76,982.523L1306.51,982.523C1355.24,982.523 1380.18,1003.02 1380.18,1042.9C1380.18,1082.76 1355.26,1102.7 1306.51,1102.7L1310.93,1120.99C1336.96,1120.99 1358.57,1114.88 1373.52,1101.04C1390.68,1087.2 1400.11,1067.26 1400.11,1041.22C1400.11,1016.31 1390.68,996.36 1373.52,982.523C1356.91,970.348 1336.96,964.248 1312.59,964.248M1438.32,964.248L1418.38,964.248L1418.38,1120.99L1438.32,1120.99L1438.32,964.248ZM1621.08,1042.9C1621.08,1019.63 1613.33,1001.36 1596.72,985.86C1579.56,968.686 1561.27,961.486 1538.57,961.486C1515.31,961.486 1497.03,968.686 1481.53,985.86L1493.72,998.048C1505.9,985.86 1521.42,979.761 1538.58,979.761C1556.86,979.761 1572.37,985.86 1584.56,998.048C1595.35,1010.49 1601.25,1026.44 1601.17,1042.91C1601.31,1059.53 1594.72,1075.53 1582.89,1087.21C1571.2,1099.03 1555.21,1105.63 1538.58,1105.49C1521.42,1105.49 1507.57,1099.4 1495.38,1087.21C1483.19,1075.02 1477.11,1059.52 1477.11,1042.91C1477.11,1025.74 1483.19,1010.24 1493.72,998.048L1481.53,985.86C1464.36,1001.36 1456.61,1019.63 1456.61,1042.9C1456.61,1065.6 1464.36,1085.54 1481.53,1101.04C1497.03,1116.55 1515.31,1124.3 1538.57,1124.3C1561.27,1124.3 1581.2,1116.55 1596.72,1101.04C1613.33,1085.55 1621.08,1065.61 1621.08,1042.9M1821.02,1004.13L1834.85,991.935C1817.69,971.998 1797.74,961.473 1771.72,961.473C1749.02,961.473 1730.18,968.673 1713.57,985.848C1698.07,1001.35 1690.32,1019.62 1690.32,1042.88C1690.32,1065.59 1698.07,1084.42 1713.57,1099.37C1729.07,1116.55 1747.35,1124.3 1768.95,1124.3C1790.55,1124.3 1808.82,1116.55 1822.68,1102.68C1836.52,1088.85 1844.28,1070.57 1844.28,1048.97L1844.28,1042.88L1781.14,1042.88L1781.14,1059.5L1822.68,1059.5L1805.5,1093.82L1770.07,1107.67C1753.44,1107.67 1739.59,1101.02 1727.42,1087.17C1715.24,1073.32 1708.59,1059.49 1708.59,1042.87C1708.59,1025.7 1715.23,1010.2 1727.42,998.01C1739.6,984.16 1755.12,978.061 1771.73,978.061C1791.65,978.098 1808.82,987.523 1821.02,1004.13M1860.88,964.248L1860.88,1120.99L1880.83,1120.99L1880.83,1045.67L1956.15,1045.67L1956.15,1120.99L1974.41,1120.99L1974.41,964.248L1956.15,964.248L1956.15,1027.38L1880.83,1027.38L1880.83,964.248L1860.88,964.248ZM2022.05,1120.99L2022.05,964.248L2002.12,964.248L2002.12,1120.99L2022.05,1120.99ZM2069.69,964.248L2049.75,964.248L2049.75,1120.99L2086.85,1120.99L2125.08,1112.12C2136.15,1104.36 2142.24,1091.62 2142.24,1077.79L2132.83,1051.75C2127.26,1044.46 2119.16,1039.52 2110.13,1037.91L2110.13,1036.81C2120.65,1031.82 2126.74,1021.3 2126.74,1007.45C2126.73,978.098 2108.45,964.248 2069.69,964.248L2069.69,981.423L2074.66,981.423C2097.37,981.423 2108.45,990.285 2108.45,1007.45C2108.45,1024.06 2097.37,1033.47 2074.66,1033.47L2069.69,1033.47L2069.69,1048.99L2082.43,1048.99C2108.46,1048.99 2122.3,1057.85 2122.3,1076.67C2122.3,1094.95 2110.11,1104.36 2085.19,1104.36L2069.69,1104.36L2069.69,981.423M2163.84,1120.99L2231.4,1120.99L2231.4,1102.71L2182.11,1102.71L2182.11,964.248L2163.84,964.248L2163.84,1120.99ZM2261.86,1120.99L2261.86,964.248L2241.93,964.248L2241.93,1120.99L2261.86,1120.99ZM947.208,704.512L947.208,729.424L1061.31,729.424C1050.22,759.899 1031.94,787.574 1007.03,811.949C984.32,835.211 961.058,850.724 935.02,859.586L950.533,880.086C980.995,867.336 1010.35,846.299 1038.03,813.624L1105.59,881.199L1125.54,859.586L1051.88,795.336C1071.82,767.649 1087.32,737.199 1095.07,704.512L947.208,704.512ZM1202.52,743.274L1279.49,743.274C1274.52,765.987 1265.66,784.811 1252.92,801.424L1202.52,769.312L1185.34,785.924L1236.31,819.699C1208.61,842.961 1177.59,858.486 1142.71,864.561L1156.54,886.173C1244.06,866.236 1296.12,810.861 1309.96,721.687L1216.36,721.687L1228.54,698.424L1202.52,692.324C1187.02,732.199 1162.66,761.549 1128.86,778.174L1145.47,796.999L1202.52,743.274ZM1498.83,744.387L1473.9,733.862C1460.07,775.399 1443.44,805.861 1420.74,823.036C1400.81,839.649 1368.13,849.061 1327.14,852.386L1333.23,878.424C1380.87,873.436 1415.76,859.586 1442.34,838.549C1463.38,818.599 1482.2,787.586 1498.83,744.387M1508.24,716.699L1497.73,684.562L1478.89,687.899L1491.07,721.674L1508.24,716.699ZM1323.82,750.474L1314.41,773.737L1375.88,798.099L1385.29,773.737L1323.82,750.474ZM1342.09,701.737L1331.57,724.437C1352.68,730.441 1373.24,738.219 1393.04,747.687L1403.57,724.437L1342.09,701.737ZM1448.43,690.662L1458.94,726.112L1477.23,721.674L1466.7,686.224L1448.43,690.662ZM1743.08,701.737L1732.54,724.437C1752.49,729.412 1772.42,737.187 1792.35,747.687L1804.55,724.437L1743.08,701.737ZM1724.79,750.474L1714.27,773.737L1775.74,798.099L1786.27,773.737C1774.08,765.987 1754.14,758.224 1724.79,750.474M1898.69,744.387L1875.44,733.862C1861.59,775.399 1843.32,805.861 1821.72,823.036C1801.78,839.649 1769.65,849.061 1728.12,852.386L1734.2,878.424C1781.84,873.436 1817.28,859.586 1841.65,838.549C1864.92,818.599 1883.19,787.586 1898.69,744.387M1890.94,721.674L1909.22,716.699L1898.69,684.562L1879.87,687.899L1890.94,721.674ZM1859.92,726.112L1878.75,721.674L1867.68,686.224L1849.4,690.662L1859.92,726.112ZM2115.24,710.599L2105.83,680.137L2087.55,684.562L2096.97,715.587L2115.24,710.599ZM2077.01,713.924L2084.22,712.262L2075.35,681.787L2055.41,686.212L2064.28,713.912L1924.72,713.912L1924.72,738.274L2063.16,738.274C2058.19,779.812 2041.57,811.936 2012.22,832.424L1942.99,856.786L1956.83,881.161C2041.57,862.874 2085.87,807.499 2090.32,713.899L2077.01,713.899M2273.64,698.412L2247.05,698.412L2247.05,792.011C2247.05,818.599 2238.19,836.874 2219.91,847.399L2149.01,861.236L2156.78,886.161L2208.83,876.749L2240.95,861.236C2262.55,844.624 2273.63,818.599 2273.63,781.487L2273.63,698.412M2162.88,701.737L2137.94,701.737L2137.94,821.374L2162.88,821.374L2162.88,701.737ZM1517.65,729.424L1517.65,753.787L1611.25,753.787C1594.08,784.799 1563.62,815.274 1518.76,846.274L1532.61,867.324C1563.62,847.386 1587.99,824.686 1606.82,801.424L1626.2,773.737L1626.2,882.849L1651.13,882.849L1651.13,753.787L1700.42,753.787L1700.42,729.424L1649.47,729.424L1649.47,693.987L1626.2,693.987L1626.2,729.424L1517.65,729.424ZM2500,922.711L2500,919.948L702.271,919.948L702.271,922.711L2500,922.711ZM722.209,355.601L722.209,352.826L702.271,352.826L697.834,355.601L697.834,357.264L708.359,355.601L719.434,357.264L722.209,355.601ZM473.535,557.188L471.873,555.525L471.873,551.1L470.223,546.113L470.223,543.35L467.448,537.25L465.785,532.263L464.123,531.163L464.123,527.838L462.46,526.175L459.698,520.075L458.035,518.975L455.26,513.988L451.948,511.213L427.573,503.463L407.085,505.125L396.561,508.45L388.811,513.988L387.136,517.313L386.036,518.975L384.373,522.3L382.723,523.413L382.723,525.075L381.061,526.175L381.061,527.838L379.948,529.5L379.948,533.925L378.286,537.25L378.286,541.688L376.623,545L376.623,547.775L374.961,547.775L374.961,555.525L373.298,559.963L370.523,563.275L370.523,564.938L372.198,564.938L374.961,569.375L374.961,583.225L376.623,583.225L376.623,584.887L378.286,587.637L378.286,589.3L381.061,593.75L384.373,590.975L384.373,589.3L382.723,586.55L382.723,580.45L381.061,578.788L381.061,557.188L382.723,555.525L382.723,552.75L384.373,552.75L384.373,540.025L386.036,538.913L386.036,533.925L387.136,532.263L387.136,527.838L388.811,527.838L392.123,522.3L394.898,518.975L419.823,509.55L434.773,511.213L444.185,515.65L450.285,522.3L451.948,522.3L451.948,523.413L456.373,532.263L458.035,533.925L458.035,536.138L459.698,538.913L461.36,540.025L462.46,545L462.46,546.113L464.123,547.775L464.123,552.75L465.785,553.863L465.785,559.963L467.448,566.613L467.448,573.8L465.785,577.138L462.46,581.55L459.698,583.225L451.948,589.3L444.185,593.75L425.923,601.5L416.498,603.162L399.886,600.387L394.898,598.725L393.786,598.725L390.473,595.412L386.036,592.637L384.373,590.975L381.061,593.75L394.898,604.825L404.31,607.587L416.498,609.25L439.76,603.162L456.373,593.75L467.448,584.887L470.223,580.45L471.873,578.788L481.285,578.788L482.398,575.463L477.973,572.688L475.21,569.375L473.535,566.613L473.535,557.188ZM289.111,538.913L289.111,540.025L291.886,541.688L293.549,538.913L293.549,537.25L295.211,533.925L295.211,531.163L296.861,527.838L296.861,525.075L298.524,520.075L298.524,518.975L296.861,517.313L295.211,518.975L295.211,520.075L293.549,520.075L293.549,525.075L291.886,525.075L291.886,531.163L290.774,531.163L290.774,532.263L289.111,538.913ZM304.611,532.263L299.636,532.263L298.524,536.138L299.636,538.913L302.961,538.913L304.611,536.138L304.611,532.263ZM311.823,537.25L307.386,537.25L307.386,538.913L310.723,541.688L311.823,540.025L311.823,537.25ZM321.248,540.025L318.473,540.025L316.811,543.35L318.473,545L321.248,546.113L322.898,545L322.898,541.688L321.248,540.025Z" style="fill:white;fill-rule:nonzero;"/>
    <path d="M388.811,553.863L388.811,569.375L390.473,571.025L394.898,577.138L402.648,577.138L405.973,575.463L408.748,571.025L408.748,551.1L404.31,555.525L405.973,557.188L404.31,559.963L402.648,558.85L402.648,555.525L404.31,555.525L408.748,551.1L407.085,546.113L405.973,543.35L402.648,540.025L396.561,541.688L390.473,547.775L390.473,551.1L388.811,553.863ZM235.386,597.062L235.386,595.412L233.736,592.637L229.299,589.3L219.886,590.975L218.224,593.75L216.574,595.412L216.574,598.725L215.461,600.387L221.549,603.162L233.736,600.387L235.386,597.062ZM402.648,656.887L400.985,661.862L400.985,662.975L405.973,667.95L412.06,662.975L410.398,661.862L444.185,662.975L444.185,664.637L419.823,664.637L412.06,662.975L405.973,667.95L425.923,670.725L563.822,680.137L573.235,682.912L582.647,682.912L613.109,688.999L620.859,688.999L622.522,687.899L619.197,682.912L596.497,678.475L574.897,676.812L561.047,674.05L402.648,656.887ZM372.198,687.899L352.248,687.899L353.361,688.999L361.111,693.987L393.786,696.749L425.923,704.512L425.923,701.737L420.923,696.749L405.973,695.649L392.123,690.662L372.198,687.899Z" style="fill:white;fill-rule:nonzero;"/>
    <path d="M622.522,746.037L622.522,743.274L619.197,739.949L611.434,735.524L610.334,741.612L610.334,743.274L594.822,743.274L569.91,735.524L561.047,733.862L482.398,710.599L475.21,707.837L487.398,709.499L507.322,715.587L514.522,715.587L602.584,738.287L610.334,741.612L611.434,735.524L562.71,723.337L553.297,720.012L400.985,684.562L396.561,682.912L382.723,680.137L376.623,680.137L366.098,676.812L350.586,678.475L348.923,680.137L350.586,682.912L355.023,680.137L362.773,682.912L382.723,686.224L393.786,690.662L428.673,695.649L430.348,696.749L442.535,700.087L438.098,701.737L434.773,706.174L436.435,706.174L573.235,743.274L611.434,749.374L622.522,746.037ZM223.211,718.362L223.211,715.587L219.886,712.262L212.136,713.924L210.474,715.587L210.474,716.699L223.211,718.362ZM393.786,737.187L393.786,743.274L399.886,747.699L404.31,743.274L399.886,739.949L400.985,738.287L419.823,744.387L422.585,744.387L495.148,775.399L499.573,777.062L521.172,789.236L521.172,790.899L519.51,790.899L422.585,750.474L416.498,749.374L404.31,743.274L399.886,747.699L484.06,779.824L485.735,781.487L495.148,785.924L502.897,787.586L531.685,799.761L536.672,801.424L545.535,803.086L547.21,801.424L541.11,796.999L535.01,790.899L502.897,770.962L493.485,767.649L487.398,764.324L408.748,735.524L396.561,733.862L393.786,737.187ZM336.748,836.874L335.086,835.211L330.661,833.549L327.336,833.549L328.998,839.636L338.411,844.611L342.836,847.386L347.261,849.049L348.923,852.374L348.923,853.486L359.448,858.474L366.098,862.899L367.198,862.899L370.523,867.324L373.298,873.411L373.298,875.636L376.636,876.749L381.061,881.174L386.036,884.498L388.811,890.586L390.473,892.248L392.136,892.248L396.561,898.336L410.398,912.173L410.398,913.836L412.06,914.948L412.06,917.173L414.835,919.948L414.835,921.048L418.16,924.373L418.16,926.048L419.835,927.711L420.935,932.136L422.598,933.798L424.26,941.548L424.26,944.323L425.935,950.411L425.935,953.736L427.598,956.511L430.373,959.836L432.035,962.611L432.035,964.273L436.46,968.698L436.46,970.361L438.123,972.023L438.123,976.448L439.785,979.773L441.448,984.198L441.448,990.298L455.285,1005.8L456.398,1013.55L456.398,1041.24L458.06,1044.01L458.06,1047.35L459.723,1049.01L459.723,1057.87L458.06,1059.54L458.06,1062.86L464.148,1067.29L464.148,1070.61L462.485,1075.04L462.485,1081.12L464.148,1082.79L467.473,1076.7L467.473,1075.04L468.585,1073.37L468.585,1068.95L465.81,1065.62L467.473,1056.76L465.81,1056.76L465.81,1047.35L464.148,1042.92L464.148,1031.84L462.485,1021.31L462.485,1019.65L464.148,1016.32L464.148,1005.8L448.648,990.298C447.535,989.185 445.873,987.523 447.535,984.198L445.873,976.448L445.873,975.348L444.21,972.011L444.21,968.686L442.548,967.573L441.435,964.248L436.46,959.823L436.46,958.161L434.785,956.498L433.685,953.723L432.023,947.636L432.023,945.973L430.36,942.648L430.36,934.886L428.685,932.123L428.685,931.011L427.585,931.011L427.585,927.686L425.923,926.023L422.585,921.036L420.923,918.261L418.148,914.936L418.148,913.823L416.485,912.161L416.485,910.536L412.06,907.211L412.06,906.098L399.873,893.911L398.211,890.586L390.461,882.836L387.136,878.411L387.136,876.749L386.036,875.636L384.373,875.636L381.048,872.311L378.273,867.324L378.273,864.549L374.948,861.224L373.273,858.461L370.498,856.786L356.661,852.361L352.236,849.036L353.348,849.036L353.348,846.286L348.923,842.961L336.748,836.874ZM198.299,959.823C193.862,958.161 187.762,959.823 180.012,965.911L176.687,968.686L167.824,972.011L160.074,979.761L144.574,990.298L142.912,993.623L135.149,1001.37L134.049,1004.15L132.374,1005.81L132.374,1009.13L135.149,1011.91L160.074,1010.25L168.937,1009.13L173.912,1009.13L178.337,1011.91L182.762,1016.34L188.849,1021.31L192.174,1025.74L196.599,1030.16L198.274,1033.49L201.599,1036.82L202.699,1039.59L202.699,1041.25L206.036,1044.02L207.699,1049.01L209.361,1050.67L218.224,1055.1L221.549,1051.76L223.211,1051.76L223.211,1029.06L224.324,1029.06L224.324,1022.97L225.986,1021.31L225.986,1017.99L224.324,1015.21L224.324,1009.12L223.211,1004.15L223.211,999.723L221.549,999.723L221.549,995.298L219.886,993.635L216.561,995.298L218.224,1004.16L218.224,1013.57L219.886,1018L219.886,1025.75L218.224,1025.75L218.224,1042.92L216.561,1045.7L213.786,1047.36L209.361,1042.93L209.361,1041.26L207.699,1039.6L207.699,1036.84L204.374,1033.5L199.949,1027.41L198.287,1025.75L196.612,1022.97L196.612,1021.31L193.837,1017.99L190.512,1016.32L188.849,1015.21L187.737,1011.88L179.987,1007.46L166.149,1001.37L156.737,1004.15L146.212,1004.15L146.212,999.723L166.149,985.885L170.574,979.786L195.524,965.911L199.949,967.573L201.611,968.686L204.386,970.348L206.049,973.673L207.711,975.348L209.374,978.111L210.486,979.773L210.486,982.548L212.149,982.548L212.149,985.885L213.811,987.548L213.811,990.323L215.474,990.323L215.474,993.648L216.586,995.31L219.911,993.648L219.911,989.223L218.249,985.898L216.586,981.473L216.586,979.798L215.474,975.373L215.474,973.661L213.811,971.998L213.811,970.336L212.149,968.673L204.399,962.586L198.299,959.823ZM362.773,1088.86L362.773,1087.2L361.111,1085.54L361.111,1084.43L347.273,1070.59L341.186,1068.92L333.436,1070.59L319.598,1077.79L309.073,1088.86L309.073,1091.63L301.311,1099.38L295.224,1104.36L293.561,1107.7L291.899,1108.81L289.124,1113.24L289.124,1116.57L290.786,1118.24L307.398,1121.01L325.686,1121.01L325.686,1116.59L315.148,1114.91L299.649,1114.91L298.536,1112.15L298.536,1108.82L299.649,1107.71L304.636,1104.37L313.498,1096.62L315.161,1094.96L321.261,1087.21L324.586,1085.55C329.011,1081.12 333.448,1077.8 338.423,1076.68L346.173,1076.68L353.373,1084.45L356.698,1088.87L356.698,1091.65L358.361,1091.65L358.361,1094.97L359.473,1098.3L359.473,1101.07L361.136,1116.59L361.136,1119.35L362.798,1119.35L362.798,1128.77L364.473,1133.2L364.473,1138.17L362.798,1139.29L356.711,1139.29L347.298,1130.42L347.298,1128.76L346.186,1128.76L341.211,1124.34L339.548,1121.01L338.436,1121.01L325.698,1116.59L325.698,1122.67L327.361,1122.67L335.111,1125.45L339.536,1130.42L342.861,1134.85L344.523,1134.85L347.298,1139.27L350.623,1142.6L361.148,1145.92L368.911,1144.26L370.561,1140.93L370.561,1136.51L368.911,1128.76L368.911,1121.01L367.236,1113.25L367.236,1105.5L366.136,1098.3L366.136,1094.97L364.473,1093.86L364.473,1090.54L362.773,1088.86ZM916.058,477.438L932.67,487.963L935.983,492.388L942.083,497.375L935.983,503.463L935.983,506.238L945.408,509.55L948.183,512.325L948.183,513.988L951.495,517.313L952.595,520.075L955.933,522.3L957.595,525.075L960.345,529.5L962.02,531.163L965.345,536.138L965.345,541.688L963.683,541.688L962.02,545L962.02,546.113L965.345,549.988L968.12,553.863L968.12,555.525L975.87,563.275L979.183,567.713L979.183,569.375L981.958,575.463L981.958,581.55L983.62,583.225L985.283,586.55L985.283,587.637L986.383,587.637L986.383,595.412L989.708,601.5L989.708,603.162L991.37,606.475L993.045,607.587L993.045,610.912L994.145,614.225L997.458,618.662L997.458,620.325L999.12,623.087L1000.23,624.75L1000.23,629.187L1001.89,629.187L1001.89,632.5L1003.56,636.937L1003.56,640.262L1005.21,640.262L1005.21,643.037L1006.88,646.362L1007.98,648.025L1007.98,649.125L1009.66,650.787L1011.32,655.225L1012.97,658.537L1014.07,660.2L1015.73,662.975L1015.73,664.637L1017.41,669.062L1017.41,670.725L1019.07,676.812L1020.73,680.137L1020.73,682.912L1021.83,687.899L1021.83,690.662L1023.5,690.662L1023.5,695.649L1026.82,701.737L1026.82,709.499L1027.93,709.499L1027.93,712.262L1034.02,712.262L1034.02,709.499L1032.91,709.499L1032.91,704.512L1031.25,704.512L1031.25,701.737L1029.6,700.087L1029.6,692.324L1027.93,688.999L1026.82,687.899L1026.82,682.912L1025.16,676.812L1025.16,674.05L1023.5,670.725L1023.5,669.062L1021.83,667.95L1021.83,664.637L1020.73,662.975L1019.07,658.537L1019.07,656.887L1017.41,656.887L1017.41,654.112L1015.73,652.45L1015.73,649.125L1014.07,648.025L1011.32,638.612L1011.32,636.937L1009.66,635.275L1007.98,632.5L1007.98,630.85L1003.56,621.437L1003.56,618.662L1001.89,617L1000.23,612.575L1000.23,610.912L999.12,609.25L997.458,606.475L997.458,603.162L995.795,601.5L993.045,595.412L993.045,592.637L991.37,592.637L991.37,589.3L989.708,584.887L989.708,581.55L988.045,580.45L988.045,578.788L986.383,575.463L986.383,573.8L985.283,571.025L985.283,567.713L983.62,566.613L981.958,563.275L979.183,558.85L977.52,555.525L973.095,551.1L974.208,547.775L974.208,543.35L973.095,538.913L971.433,536.138L969.77,536.138L969.77,532.263L968.12,532.263L966.458,529.5L962.02,523.413L960.345,520.075L954.27,511.213L952.595,509.55L952.595,508.45L949.845,503.463L948.183,501.8L948.183,498.488L946.508,497.375L943.733,492.388L942.083,489.625L934.32,481.876L929.895,475.776L928.233,475.776L922.145,470.788L914.395,474.101L916.058,477.438ZM402.648,274.177L399.886,271.414L399.886,269.752L398.223,268.089L394.898,266.427L392.123,269.752L394.898,273.064L398.223,281.927L398.223,288.026L396.561,288.026L396.561,289.701L394.898,291.351L392.123,295.776L384.373,293.014L382.723,289.701L379.948,286.926L379.948,285.251L378.286,281.927L378.286,280.277L379.948,280.277L379.948,275.839L381.061,274.177L382.723,271.414L392.123,269.752L394.898,266.427L388.811,265.314L382.723,265.314L378.286,268.089L376.623,269.752L373.298,274.177L373.298,286.926L374.961,291.351L376.623,293.014L378.286,295.776L382.723,297.451L394.898,299.089L396.561,295.776L400.985,291.351L402.648,286.926L402.648,274.177Z" style="fill:white;fill-rule:nonzero;"/>
    <path d="M837.408,27.178L837.408,37.703L839.071,42.128L840.746,43.79L842.408,47.115L842.408,53.215L843.521,57.64L843.521,62.065L845.183,65.403L845.183,79.24L846.846,79.24L846.846,88.652L848.508,89.752L848.508,93.09L850.171,94.752L850.171,102.502L851.283,102.502L851.283,123.565L852.946,125.227L852.946,128.552L854.608,132.977L854.608,146.815L856.271,150.14L856.271,154.565L857.383,156.227L856.271,157.34L857.383,160.665L857.383,172.852L859.046,172.852L859.046,192.802L860.708,204.977L860.708,229.902L859.046,232.677L859.046,263.689L857.383,265.352L859.046,268.127L859.046,274.214L857.383,274.214L857.383,285.289L856.271,288.064L856.271,291.401L854.608,294.164L854.608,299.139L834.671,306.901C829.683,308.014 825.246,309.676 822.471,311.326L806.971,314.101L793.134,326.839L793.134,339.026L791.471,340.689L791.471,343.464L789.809,354.539L787.034,358.964L785.371,363.401L783.709,365.051L782.046,368.389L782.046,371.164L780.934,372.826L780.934,377.251L783.709,378.914L788.684,375.589L789.796,374.476L789.796,371.151L797.546,372.814L813.046,380.564C826.896,388.313 836.308,392.751 839.071,392.751L842.408,394.413L856.246,398.838L865.108,403.263L874.521,409.913L874.521,412.688L866.771,412.688L863.996,416.013L886.696,428.201L904.983,442.038L904.983,443.701L903.87,444.813L891.121,442.038L886.696,444.813L892.796,448.138C900.545,449.801 908.295,453.126 912.733,457.563L928.233,472.513L934.32,477.488L938.745,483.575L940.408,483.575L938.745,478.588L924.908,464.751L923.795,457.563L920.47,455.901L917.695,449.801L909.945,438.726L890.021,422.051L888.346,420.388L891.121,417.063L891.121,414.288L882.258,408.213L877.283,403.226L866.758,396.026L823.558,380.526L808.608,371.114L808.608,368.339L819.133,369.451L826.896,369.451L826.896,366.676L825.221,365.001L806.946,361.689L799.196,355.601L800.858,354.476L814.696,357.264L819.121,357.264L832.958,360.589L837.383,360.589L840.721,358.914L839.046,355.601L809.696,349.501L800.833,346.726L802.496,345.064L805.271,343.401L822.433,345.064L848.471,352.826L858.996,357.251L862.321,355.589L862.321,352.814L860.658,351.139L851.246,345.051L837.396,341.726L802.521,337.314L800.858,335.651L802.521,334.539L809.721,334.539L823.558,332.876L846.821,332.876L846.821,331.214L832.971,327.889L805.283,327.889L803.621,326.776L813.033,321.801L829.646,315.714L845.158,312.939L856.233,306.851L856.233,305.176L862.321,295.764L862.321,289.689L863.983,288.014L863.983,243.714L865.096,240.377L863.983,237.614L865.096,229.852L865.096,184.989L863.983,184.989L863.983,168.377L862.321,156.19L862.321,148.44L860.658,140.69L860.658,132.94L858.996,132.94L858.996,126.852L857.333,123.527L857.333,119.09L856.221,114.665L856.221,89.727L854.558,88.627L854.558,79.24L852.896,75.903L852.896,71.49L851.233,69.815L851.233,59.303L850.146,57.628L850.146,51.54L848.483,49.878L848.483,48.215L846.821,45.44L846.821,43.79L839.058,22.178L834.646,21.078L823.558,23.853L820.783,27.178L819.121,29.94L817.458,31.615L814.696,36.04L808.608,49.878L805.283,53.215L802.521,59.303L800.858,60.965L791.446,73.153L789.784,75.915L785.359,80.903L785.359,83.665L782.034,86.99L771.509,106.927L769.834,111.352L768.171,113.015L767.059,116.352L765.396,120.777L762.071,123.552L760.959,126.877L759.296,128.54L755.971,134.627L755.971,136.29L754.859,137.402L751.534,146.815L748.209,148.477L748.209,150.14L745.434,156.227L743.771,157.34L742.109,160.665L742.109,162.327L740.996,166.752L740.996,168.415L739.334,170.09L739.334,172.852L737.671,174.527L737.671,178.952L736.009,182.29L736.009,186.714L729.921,198.889L729.921,200.564L728.259,202.227L722.159,211.639L720.496,216.064L719.384,217.727L717.721,223.814L713.296,229.902L711.621,236.002L710.021,237.639L708.359,240.402L705.584,245.389L703.921,246.502L703.921,248.164L702.259,251.489L702.259,254.264L703.921,265.339L714.446,279.177L719.421,283.601L719.421,285.264L720.534,285.264L722.196,289.701L727.184,297.451L727.184,305.189L722.196,303.539L716.109,297.451L691.747,283.601L683.997,291.364L711.684,311.301L719.434,320.714L722.209,323.489L725.546,325.151L727.209,321.826L717.784,312.964L705.596,303.551L697.847,295.789L697.847,294.126L696.184,293.026L703.934,297.451L707.271,300.776L713.359,305.201L714.459,306.876L722.209,311.301L725.546,314.076L727.209,317.401L727.209,321.826L725.546,325.151L727.209,326.814L727.209,331.239L725.546,331.239L720.559,329.576L693.422,309.639L685.672,311.301L690.097,315.726L705.596,325.139L707.271,327.914L703.934,326.801L664.072,320.714L654.647,317.389L645.784,315.726L644.122,314.064L618.097,314.064L611.447,311.289L611.447,306.864L616.434,301.889L631.934,297.464L639.134,295.789L640.797,293.026L636.372,291.364L631.947,291.364L626.972,293.026L626.972,294.126L624.197,295.789L614.784,297.464L614.784,295.789L616.447,295.789L619.222,293.026L626.972,293.026L631.947,291.364L644.134,285.264L644.134,283.601L639.159,283.601L631.959,286.939L616.459,288.039L611.472,285.264L608.709,291.364L607.022,291.364L608.684,294.126L608.684,300.776L607.022,303.539L605.359,311.289L599.26,314.064L569.91,317.389L568.797,311.301L568.797,288.039L569.91,286.939L569.91,279.164L571.572,275.839L569.91,274.177L569.91,269.752L568.797,268.089L567.135,265.314L568.797,261.989L557.722,255.902L551.622,251.477L550.522,249.814L550.522,248.152L548.86,245.377L548.86,234.302L550.522,229.864L550.522,226.539L551.622,225.427L554.96,218.789L554.96,217.677L556.06,214.352L556.06,212.689L557.735,211.577L559.397,208.252L559.397,203.827L561.06,202.164L561.06,197.739L563.835,186.664L563.835,182.24L565.497,177.815L567.16,174.49L567.16,172.815L569.935,168.39L569.935,165.065L571.597,163.952L571.597,160.627L573.26,158.965L573.26,157.302L574.922,154.527L576.585,152.865L576.585,150.09L577.697,148.427L577.697,145.09L579.36,143.44L579.36,140.665L581.022,138.99L587.11,126.815L590.435,117.39L591.547,116.29L593.21,112.952L594.872,111.29L599.297,102.427L605.397,95.79L613.147,85.252L614.809,82.49L618.134,77.515L630.322,65.328L631.984,66.99L633.097,69.753L633.097,73.09L634.759,74.753L634.759,80.84L636.422,85.265L636.422,86.94L638.084,91.365L638.084,105.215L639.197,108.54L639.197,117.402L640.859,120.74L640.859,142.34L642.522,145.102L642.522,146.777L644.184,148.44L644.184,156.19L645.847,158.965L645.847,178.902L646.959,182.24L646.959,200.514L645.847,202.177L645.847,218.789L646.959,220.452L646.959,228.202L648.622,231.539L648.622,234.314L650.284,235.977L650.284,248.164L645.859,257.577L618.172,271.414L613.197,275.839L611.522,279.164L613.197,280.277L613.197,283.601L616.522,283.601L630.359,280.277L636.447,280.277L644.197,279.164L639.222,275.839L628.697,275.839L628.697,274.177L638.109,269.752L651.959,260.339L653.059,257.564L656.384,240.389L656.384,235.964L654.722,234.302L654.722,216.014L653.059,214.352L653.059,184.989L651.959,182.227L651.959,168.377L653.059,168.377L651.959,166.715L651.959,146.777L650.284,143.452L650.284,132.927L648.622,130.152L648.622,128.49L646.959,123.515L646.959,117.415L645.847,114.652L645.847,109.665L644.184,106.89L644.184,91.377L642.522,86.952L642.522,82.553L640.859,79.228L640.859,73.14L638.022,67.053L638.022,65.39L636.359,62.053L636.359,60.965L634.697,57.628L626.947,57.628L616.422,68.715L614.772,68.715L614.772,71.49L610.347,75.915L605.372,85.327L596.51,94.752L591.522,103.615L585.435,111.365L583.772,113.027L583.772,114.702L582.66,117.465L580.997,123.565L579.335,125.227L579.335,126.89L576.56,131.315L576.56,136.29L573.235,139.052L573.235,140.727L571.572,143.502L569.91,145.152L569.91,148.49L568.797,151.265L568.797,154.59L565.472,159.015L565.472,160.677L563.81,164.002L563.81,165.115L562.697,168.44L561.035,170.115L561.035,172.877L559.372,177.865L556.035,180.64L556.035,183.964L554.935,186.739L554.935,188.402L553.272,190.064L553.272,197.814L551.597,200.589L551.597,205.014L550.497,206.689L550.497,212.777L548.835,217.752L545.497,223.839L545.497,225.502L542.172,231.602L542.172,234.377L541.072,239.339L541.072,243.777L542.172,246.552L543.835,248.214L543.835,251.539L547.172,254.314L565.447,266.502L562.672,274.252L541.072,263.727L528.322,260.402C527.21,259.289 525.547,260.402 523.897,262.064L529.985,266.489C534.96,266.489 539.397,268.152 542.172,271.464L537.747,274.239L534.972,279.214L545.497,279.214L554.922,280.327L562.672,283.651L561.01,286.989L548.822,288.089L542.172,289.764L542.172,291.426L550.485,291.426L554.91,289.764L560.997,291.426L560.997,295.851L559.335,299.176L543.822,300.851L542.16,303.626L543.822,305.276L550.472,303.626L555.997,300.851L560.985,301.964L560.985,306.939L555.997,309.714L557.672,314.139L557.672,317.464L553.247,319.126L551.572,315.801L557.672,314.139L555.997,309.714L547.147,314.139C539.385,315.801 536.61,317.464 536.61,319.114L527.197,323.539L525.535,325.201L522.76,323.539L523.872,319.114L523.872,314.139L522.76,311.364L505.597,306.939L505.597,301.964L499.51,289.776L487.323,274.264L479.56,269.839L475.135,260.427L467.373,252.677L467.373,249.902L465.71,248.239L464.048,243.814L455.185,231.627L445.773,223.864L425.835,211.677L425.835,208.352L424.16,205.014L422.498,203.914L422.498,188.414L420.835,186.752L420.835,185.077L419.735,182.315L419.735,180.652L418.148,176.165L416.485,176.165L416.485,172.827L413.723,168.402L412.048,165.077L412.048,163.965L402.635,143.477L402.635,140.702L400.973,139.027L399.861,134.602L398.198,132.94L393.773,132.94L390.448,134.602L390.448,137.377L388.786,139.027L387.111,142.365L387.111,146.79L386.011,150.115L386.011,156.202L384.348,160.627L384.348,172.815L381.023,176.152L378.248,171.165L372.161,158.977L372.161,157.315L370.486,154.54L370.486,152.877L368.836,150.102L364.411,145.115L361.073,145.115L359.411,148.452L359.411,151.227L358.298,154.552L358.298,158.977L356.636,162.302L356.636,176.152L355.023,180.59L355.023,190.002L356.686,191.664L355.023,191.664L355.023,200.527L356.686,200.527L356.686,209.939L358.348,211.602L358.348,214.377L359.461,217.702L359.461,248.177L350.598,266.452L350.598,274.202L348.936,275.864L348.936,285.276L352.261,283.614L353.373,280.289L355.023,279.164L356.686,275.839L358.348,277.502L358.348,279.164L355.023,285.251L356.686,288.026L358.348,289.701L359.461,289.701L359.461,291.364L358.348,291.364L356.686,294.126L353.361,295.789L352.248,294.126L352.248,283.601L348.923,285.264L347.273,285.264L348.936,289.701L348.936,297.451L350.598,300.776L350.598,309.639L352.261,314.064L352.261,326.801L350.598,326.801L350.598,335.664L348.936,337.326L348.936,346.739L350.598,349.514L350.598,354.489L352.261,357.276L353.373,365.014L355.036,368.351L358.361,377.214L361.136,380.539L364.473,386.626L358.373,392.713L355.023,397.126L350.598,397.126L346.173,400.463L344.511,397.126L344.511,392.701L341.186,391.038L338.411,396.013L335.086,402.113L335.086,403.213L325.673,412.638L322.898,422.051L319.573,424.813L316.798,429.801L313.461,435.888L311.798,437.001L311.798,440.326L310.698,441.988L309.036,444.763L305.698,449.738L305.698,450.851L304.586,453.076L299.611,461.926L296.836,464.701L293.511,469.688L293.511,470.788L290.736,477.438L289.074,478.538L287.411,481.876L285.749,483.538L284.636,487.963L282.974,491.288L282.974,494.613L281.311,497.388L281.311,500.163L279.649,503.488L279.649,505.15L277.986,508.475L277.986,512.363L276.874,515.688L276.874,519.025L275.211,525.113L275.211,527.888L273.549,531.213L273.549,536.188L271.886,537.3L265.799,546.163L261.374,550.038L224.261,560.013L205.986,571.088L205.986,573.863L204.324,577.2L202.649,578.863L202.649,592.7L204.324,595.475L204.324,600.45L201.549,604.875L196.562,618.712L196.562,620.375L192.137,626.462L182.774,626.462L181.674,624.8L176.687,623.137L173.912,623.137L168.937,624.8L170.599,628.125L172.262,629.237L184.449,632.562L192.199,635.337L193.862,638.675L193.862,650.862L192.199,652.525L175.024,655.225L142.912,667.962L142.912,670.737L144.574,674.062L190.537,658.562L193.862,661.887L192.199,664.662L192.199,667.987L190.537,669.1L190.537,670.762L188.874,674.087L188.874,676.862L187.762,678.525L187.762,681.85L180.012,686.274L175.024,690.662L187.762,688.999L188.874,690.662L190.537,693.999L192.199,698.424L192.199,700.099L193.862,702.862L193.862,704.537L195.537,709.512L195.537,710.624L196.637,713.949L196.637,715.612L198.312,716.724L199.974,720.049L198.312,723.374L184.462,726.149L176.712,729.474L173.937,732.249L173.937,739.999L175.049,741.662L173.937,743.324L158.437,766.037L150.687,771.012L142.937,778.212L138.512,781.537L138.512,785.961L136.849,787.624L129.087,793.711L126.312,798.136L104.712,821.399L90.875,832.474L83.125,836.899L75.362,839.674L78.7,846.311L63.187,861.261L59.862,866.249L59.862,867.349L61.525,872.336L59.862,873.436L53.775,881.199L51,884.523L47.675,890.611L47.675,898.361L43.25,903.336L41.587,907.223L38.787,910.536L38.787,913.861L37.125,917.198L37.125,919.973L26.037,931.048L26.037,933.823L17.187,946.011L17.187,950.436L15.525,952.098L15.525,955.423L13.85,961.511L13.85,972.036L9.425,978.123L7.762,979.786L6.1,982.561L4.987,987.548L3.325,989.21L1.662,993.635L3.325,993.635L3.325,996.398L4.987,999.735L4.987,1004.16L3.325,1007.49L3.325,1013.57L1.662,1016.35L1.662,1018.01L-0,1021.34L-0,1024.11L1.662,1025.77L4.987,1023L4.987,1016.36L6.1,1015.25L6.1,1011.92L7.762,1009.15L7.762,999.735L9.425,996.398L11.087,995.298L13.862,990.323L13.862,989.21L12.2,985.885L13.862,984.21L19.95,975.361L26.037,968.711L23.275,962.623L24.937,962.623L49.3,952.098L58.712,952.098L69.237,959.848L72.562,962.623L72.562,965.911L73.675,967.573L81.425,973.661L87.525,973.661L92.5,967.573L92.5,964.248L87.525,965.911L86.412,967.573L81.425,962.598L81.425,961.486L78.662,956.511L75.325,953.736L72.55,947.648L70.887,945.986L59.812,942.661L44.862,945.986L38.787,950.411L27.7,955.386L24.937,953.723L24.937,948.748L26.037,945.973L27.7,945.973L27.7,942.661L29.375,938.236L33.8,933.811L35.462,931.036L38.787,927.711L43.212,926.048L49.3,919.961L55.387,914.973C59.812,912.198 61.475,910.548 63.137,910.548L80.312,901.136L83.087,904.461L83.087,908.886L84.75,914.973L84.75,921.061L83.087,928.823L84.75,931.036L84.75,936.573L86.412,936.573L86.412,955.398L87.525,961.486L87.525,965.911L92.5,964.248L93.612,962.586L95.275,959.811L95.275,945.973L93.612,942.648L93.612,934.886L92.5,934.886L92.5,904.423L90.837,903.311L90.837,899.986L87.525,895.023L81.425,893.911L75.337,896.686L73.675,898.348L50.975,910.536L53.75,901.123L53.75,898.348L55.412,895.023L67.6,886.161L67.6,882.836L63.15,882.836L59.825,884.498L61.487,881.174L69.237,873.411L83.087,862.886L84.75,856.799L78.662,856.799L78.662,855.136L92.5,842.949L93.612,838.524L103.024,829.111L122.962,815.274L134.049,804.736L141.799,798.099L153.987,790.899L192.199,775.399L212.149,770.974L213.811,775.399L216.586,777.062L238.186,783.149C245.936,779.824 250.374,779.824 253.699,783.149L265.886,789.236L275.299,792.011L283.049,798.099L290.799,803.074L302.986,813.599L310.748,818.586L318.498,821.361L332.336,830.774L336.761,829.111L333.436,824.686L324.573,818.599L310.736,811.949L276.949,785.924L249.261,777.062L239.836,777.062C237.061,773.737 233.749,772.087 230.424,772.087L221.561,769.312L206.061,767.649L178.362,772.074C170.612,775.399 164.524,778.162 161.199,779.824L153.999,784.799L146.249,785.911L146.249,783.137L160.087,770.949L161.199,770.949L167.837,765.974L168.949,763.199L168.949,761.524L173.924,757.099L178.349,749.349L186.099,743.249L187.762,739.924L190.537,735.499L192.199,732.174L206.049,727.749L207.711,726.087L204.386,721.662L204.386,718.337L206.049,715.562L204.386,707.812L202.711,706.149L196.624,693.962L196.624,686.199L195.524,681.775L195.524,674.025L196.624,670.7L196.624,669.037L198.299,666.262L198.299,662.937L199.962,661.825L199.962,654.075L201.624,647.987L201.624,638.575L199.962,635.237L199.962,632.462L201.624,629.137L201.624,624.712L202.724,621.387L202.724,620.275L204.399,616.95L206.061,615.287L206.061,612.512L207.724,609.187L213.811,603.1L210.486,593.687L209.374,583.163L215.461,572.625L221.549,570.963L230.411,575.388C235.386,575.388 239.824,578.725 244.249,583.15L244.249,584.812L249.236,593.675L249.236,600.312L250.336,603.087L255.324,600.312L255.324,589.225L251.986,583.15L238.149,570.95L229.286,566.525L233.711,563.188L238.136,561.525L241.461,561.525L241.461,564.85L247.549,564.85L255.311,563.188L256.974,564.85L256.974,567.625L275.249,567.625L276.911,572.6L273.586,575.375L284.661,580.363L284.661,581.463L282.999,583.138L282.999,584.8C284.661,586.462 285.774,587.562 290.749,587.562L291.861,584.8L287.436,580.375L287.436,577.05L289.099,577.05L287.436,575.375L281.349,566.525L278.024,563.188L271.936,561.525L267.524,557.188L267.524,552.763L278.049,543.35L281.374,545.013L284.699,545.013L285.811,543.35L285.811,536.15L287.474,536.15L287.474,527.85L289.136,525.075L289.136,523.413L290.799,520.075L290.799,513.988L285.824,518.975L285.824,522.3L284.686,523.413L283.024,531.163L283.024,533.925L281.361,532.263L283.024,529.5L283.024,523.413L284.686,515.65L284.686,511.225L285.799,506.25L285.799,505.138L287.461,501.813L287.461,498.488L289.124,497.375L289.124,494.6L291.899,487.963L293.561,486.3L302.973,468.013L304.636,466.901L307.411,460.263L309.086,455.838L311.848,450.851L311.848,448.076L313.511,448.076L316.848,440.326L321.273,432.576L322.898,430.913L325.673,424.813L328.998,420.388L332.323,417.063L332.323,422.038L333.436,424.801L336.761,420.376L339.536,412.626L341.198,410.963L341.198,408.188L346.173,408.188L347.286,410.963L352.261,408.188L361.123,398.763L361.123,397.101L367.211,391.013L379.961,392.676L382.736,391.013L373.311,388.238L370.536,382.151L367.211,378.826L361.123,366.639L359.461,364.964L359.461,361.651L358.348,360.539L358.348,357.214L356.686,354.426L356.686,306.801L355.023,306.801L355.023,301.826L356.686,300.714L361.111,299.039L364.448,295.714L364.448,286.864L366.111,286.864L364.448,281.877L364.448,275.789L361.111,273.014L356.686,271.352L356.686,266.377L364.448,252.539L367.211,249.764L367.211,248.102L368.886,246.439L367.211,243.664L367.211,242.002L366.111,240.327L366.111,214.302L364.448,212.639L364.448,208.214L362.773,206.552L362.773,203.777L361.111,198.789L361.111,176.165L362.773,174.502L362.773,166.74L364.448,163.965L364.448,158.99L367.211,162.315L367.211,163.977L368.886,165.09L368.886,166.752L370.536,168.415L370.536,170.09L372.211,171.19L372.211,172.852L373.311,174.527L376.648,183.939L378.311,186.714L379.973,188.377L379.973,209.977L378.311,209.977L378.311,237.677L379.973,237.677L382.748,234.352L384.411,234.352L384.411,208.314L386.073,203.889L386.073,194.477L387.173,183.952L387.173,177.865L388.848,176.202L388.848,172.865L390.511,172.865L390.511,154.59L392.173,154.59L392.173,151.265L393.836,150.152L393.836,146.827L394.948,146.827L398.273,150.152L399.936,152.927L399.936,154.59L401.048,156.252L402.71,159.027L402.71,160.69L404.373,162.352L404.373,164.015L406.035,168.44L406.035,170.115L407.148,170.115L407.148,172.877L408.81,176.215L408.81,177.877L410.473,177.877L410.473,180.652L413.81,183.977L413.81,186.752L414.91,186.752L414.91,197.827L416.573,203.914L416.573,206.689L418.235,211.664L418.235,212.777L421.01,214.439L424.335,218.864L445.948,231.614L455.36,240.464L455.36,243.802L456.473,246.577L458.135,246.577L458.135,249.902L459.798,251.564L459.798,252.677L464.223,257.652L465.885,260.427L467.548,262.089L468.66,265.414L470.323,266.527L470.323,268.189L473.648,273.164L478.073,277.589L482.498,280.364L485.835,282.027L487.498,285.351L490.26,288.126L493.598,295.876L495.26,295.876L495.26,299.201L496.373,300.876L498.035,305.301L498.035,306.976L500.797,309.751L500.797,311.414L511.885,315.839L513.547,320.814L511.885,321.926L510.222,325.251L458.16,345.189C453.735,346.851 448.748,348.526 447.635,349.614L412.185,365.114L396.686,375.651L393.911,378.976L392.248,378.976L390.586,382.301L387.248,385.076L386.148,388.401L382.823,391.176L380.048,392.838L380.048,394.501L381.161,397.276L387.236,394.501L399.986,382.314L419.935,366.814L421.035,368.476L428.785,366.814L462.573,349.639L555.06,323.614L602.697,320.839L676.359,328.039L680.784,328.039L686.872,329.701L690.197,333.026L688.534,335.801L694.622,340.776L686.872,343.551L686.872,346.876L702.371,346.876L711.784,348.551L720.646,348.551L719.534,341.901L719.534,340.789L722.309,339.126L722.309,341.901L719.534,341.901L720.646,348.551L723.984,351.314L728.409,352.989L730.071,349.651L730.071,341.901L731.734,339.126L731.734,333.039L733.396,329.714L733.396,314.214L734.509,309.789L734.509,299.251L731.734,293.176L730.071,291.514L727.296,285.414L725.634,279.327L722.296,274.352L716.209,269.927L711.784,262.177L711.784,259.402L710.021,255.902L711.684,254.239L711.684,252.577L713.359,249.802L714.459,248.139L714.459,245.364L722.209,234.289L722.209,231.539L723.884,228.202L725.546,226.539L728.321,222.114L729.984,217.689L729.984,212.714L733.309,206.627L734.421,202.202L736.084,200.539L741.059,191.677L741.059,185.027L743.834,178.94L743.834,177.84L745.496,174.515L745.496,171.165L747.159,170.065L748.271,166.727L748.271,163.952L749.934,160.627L749.934,158.965L753.259,152.877L756.034,150.102L756.034,146.777L761.009,140.69L762.121,137.365L762.121,134.59L765.446,131.265L769.871,120.74L774.859,116.315L775.959,112.977L775.959,111.315L777.621,109.652L779.296,106.877L780.959,102.452L783.734,95.815L785.396,94.702L797.584,75.865L802.521,67.053L806.946,62.065L809.721,55.978L813.046,51.553L814.708,48.228L816.371,47.115L820.796,37.703L823.571,34.378L828.558,27.178L832.983,25.515L837.408,27.178Z" style="fill:white;fill-rule:nonzero;"/>
    <path d="M393.786,283.589L392.123,277.502L386.036,275.839L384.373,277.502L382.723,280.277L384.373,285.251L386.036,288.026L387.136,288.026L392.123,286.926L393.786,286.926L393.786,283.589Z" style="fill:white;fill-rule:nonzero;"/>
</svg>
